<?xml version="1.0" encoding="utf-8"?>
<!-- Generator: Adobe Illustrator 22.1.0, SVG Export Plug-In . SVG Version: 6.00 Build 0)  -->
<!DOCTYPE svg PUBLIC "-//W3C//DTD SVG 1.0//EN" "http://www.w3.org/TR/2001/REC-SVG-20010904/DTD/svg10.dtd">
<svg version="1.0" id="Layer_1" xmlns="http://www.w3.org/2000/svg" xmlns:xlink="http://www.w3.org/1999/xlink" x="0px" y="0px"
	 viewBox="0 0 382.2 452" enable-background="new 0 0 382.2 452" xml:space="preserve">
<g>
	<path fill="#FFFFFF" d="M183.5,449.9c-6.6-1.9-24.4-7.7-47.5-20.6c-9.8-5.5-19.8-11.8-29.5-18.8c-10.6-7.7-20.9-16.2-30.4-25.3
		c-22.5-21.6-40.2-46.1-52.8-72.8c-7.2-15.3-12.8-31.5-16.6-48.2c-4-18.1-6.1-36.9-6.1-55.8L0,141.7V0h382.2l0,141.8l-0.7,66.7
		c0,19.4-2,38.2-6.1,55.8c-3.8,16.8-9.4,33-16.6,48.2c-12.5,26.7-30.3,51.1-52.7,72.7c-9.6,9.1-19.8,17.6-30.4,25.3
		c-9.7,7-19.6,13.4-29.5,18.8c-23.1,12.8-40.9,18.6-47.4,20.5l-7.7,2.2L183.5,449.9z"/>
	<path fill="#000066" d="M15.2,145.8l0.7,62.6c0,18.1,1.9,35.7,5.7,52.5c3.5,15.6,8.7,30.8,15.5,45.1c11.8,25,28.4,48,49.5,68.2
		c8.8,8.5,18.5,16.5,28.7,23.9c8.9,6.5,18.3,12.4,28,17.8c21.8,12.1,38.2,17.5,44.3,19.2l3.5,1l3.5-1c6.1-1.7,22.5-7.1,44.3-19.2
		c9.6-5.4,19-11.3,28-17.8c10.2-7.4,19.9-15.4,28.7-23.9c21.1-20.3,37.7-43.2,49.5-68.2c6.7-14.3,11.9-29.5,15.5-45.1
		c3.8-16.8,5.7-34.4,5.7-52.5l0.7-62.6H15.2z M359.9,208.4c0,17.6-1.9,34.8-5.6,51.2c-3.4,15.1-8.5,29.9-15,43.8
		c-11.5,24.3-27.7,46.7-48.2,66.4c-8.6,8.3-18.1,16.2-28,23.4c-8.7,6.3-17.9,12.2-27.3,17.4c-21.2,11.8-37.1,17-43,18.7l-1.8,0.5
		l-1.8-0.5c-5.9-1.7-21.8-6.9-43-18.7c-9.4-5.2-18.6-11.1-27.3-17.4c-10-7.2-19.4-15.1-28-23.4c-20.5-19.7-36.7-42.1-48.2-66.4
		c-6.6-13.9-11.6-28.6-15-43.8c-3.7-16.3-5.6-33.6-5.6-51.2l-0.6-56.3h338.9L359.9,208.4z"/>
	<path fill="#000066" d="M32.6,258c3.3,14.8,8.3,29.2,14.6,42.8c11.2,23.8,27,45.6,47,64.9c8.4,8.1,17.6,15.8,27.4,22.9
		c8.5,6.2,17.5,11.9,26.7,17.1c20.7,11.6,36.2,16.6,41.8,18.3l0.9,0.2l0.9-0.2c5.7-1.6,21.1-6.7,41.8-18.3
		c9.2-5.1,18.2-10.9,26.7-17.1c9.7-7.1,19-14.8,27.4-22.9c20-19.3,35.8-41.1,47-64.9c6.4-13.6,11.3-28,14.6-42.8
		c3.6-16,5.4-32.8,5.4-50.1l0.5-52.7H26.6l0.5,52.7C27.1,225.2,29,242.1,32.6,258z M352.2,158.4l-0.5,49.6
		c0,141.8-122.6,202.1-160.7,213.1c-38.1-11-160.7-71.2-160.7-213.1l-0.5-49.6H352.2z"/>
	<rect x="15.2" y="129.7" fill="#000066" width="351.7" height="8.9"/>
	<rect x="15.2" y="15.1" fill="#000066" width="351.7" height="26.4"/>
	<g>
		<path fill="#000066" d="M68.9,84.9c0.2-6.6,0.2-8.5,7.6-9.5v-1H55.9v1c7.4,1,7.4,2.9,7.6,9.5v22.5c-0.2,6.6-0.2,8.5-7.6,9.5v1
			h20.6v-1c-7.4-1-7.4-2.9-7.6-9.5V84.9z"/>
		<path fill="#000066" d="M249.9,73.6c-13.5,0-23.5,8.9-23.5,22.5c0,13.9,10,22.7,23.6,22.7c13.5,0,23.6-8.8,23.6-22.6
			C273.6,84.7,266.4,73.6,249.9,73.6z M249.4,75.1c9.8,0,16.5,10.8,16.7,22.1c0,9.2-4.7,20-15.3,20c-11.6,0-16.9-12.7-16.9-22.7
			C233.9,85.9,238.4,75.1,249.4,75.1z"/>
		<path fill="#000066" d="M282,74.3h-10.6v1c8.2,1.8,9.2,4.3,9.2,10.7v9.6c0,14.6,0.3,20.5-8.4,21.4v1h19.2v-1
			c-9.3-1.9-8.9-5.1-8.9-21.1V84.1c10.9,11.7,22.3,22.9,32.6,35l0.8-0.2c-0.3-14-0.6-29.5,0.3-36.5c0.5-4.2,1.4-6.6,5.8-7.2v-1
			h-17.6v1c7.3,1.3,8.9,3.1,9,9.2l0.3,23.4L282,74.3z"/>
		<path fill="#000066" d="M115,77c-4.2-2.5-9.2-3.5-14.1-3.5c-17,0-25.9,11.6-25.9,23c0,14.5,12,22.2,25.4,22.2
			c4.6,0,9-0.8,13.1-2.8c1.5-3.7,2.8-7.6,3.5-11.5l-0.9-0.4c-2.9,6.9-6.2,13.1-14.7,13.1c-9.3,0-19-8.8-19-21.4
			c0-11,6.6-20.7,18.4-20.7c7.7,0,12,5.2,13.2,12.5h1V77z"/>
		<path fill="#000066" d="M130.5,96.9h25.9v10.6c0,7.1-0.1,8.3-8.6,9.6v1H170v-1c-7.7-1-7.8-3-8-9.6V84.9c0.2-6.6,0.3-8.5,8-9.6v-1
			h-22.2v1c8.4,1.2,8.6,2.5,8.6,9.6v9.3h-25.9v-9.3c0-7.1,0.1-8.3,8.6-9.6v-1h-22.2v1c7.7,1,7.8,3,8,9.6v22.6
			c-0.2,6.6-0.3,8.5-8,9.6v1h22.2v-1c-8.4-1.2-8.6-2.5-8.6-9.6V96.9z"/>
		<path fill="#000066" d="M187.4,81.4c-0.5-1-2.2-4.9-0.8-6.4l-0.1-0.7h-13.9v1c3.8,0.3,7.5,1.8,7.1,6l-0.8,8.7l-2.4,18
			c-0.9,5.2-1.5,8-7.2,8.9v1h18v-1c-7.8-1.3-7.9-4.2-7.7-6.7c0.5-9.9,1-17.1,2-26.9h0.1l15.3,34.5h0.7l16.4-36h0.1l1.7,28
			c0.3,5.6-2.8,6.2-7.8,7v1h21.2v-1c-6.9-1.2-6.9-2.6-7.6-11.5l-1.4-23.4c-0.3-4.5,2.3-6,6.4-6.9v-1h-14.2l-0.1,1
			c1.4,1,0.5,4.2-1.1,7.7l-11.7,25.5L187.4,81.4z"/>
		<path fill="#000066" d="M28.7,74.6c6.7-0.1,13.3,3,13.3,10.7c0,7.3-7.2,10.1-13.3,10.2V74.6z M23.1,107.2
			c-0.2,6.7-0.3,8.7-7.9,9.8v1h22.4v-1c-8.8-1.2-8.9-2.6-8.9-9.8V96.7c4.5,0.8,6.8-0.8,9.3,4.6c1.3,2.8,4.7,8.6,8.9,13.1
			c3.7,3.9,6,3.6,15.8,3.6l-0.1-0.5c-10.4-2.3-16.8-13.4-21.7-22.3l-0.3-0.5c4.6-2.1,7.9-5.2,7.9-10.7c0-3.1-1.3-11.2-17.4-10.7
			l-15.6,0.5v0.9c7.2,0.7,7.5,2.2,7.5,12.2L23.1,107.2z"/>
		<path fill="#000066" d="M320.5,75.4c7.3,1,7.4,3.2,7.5,9.8v22.3c-0.2,6.6-0.3,8.5-8,9.6v1l19.2,0.1c22.1,0.2,28.1-12.6,28.1-21.8
			c0-6.7-3-23-31.3-22.1l-15.5,0.3V75.4z M357.9,87.6c3.4,6.7,1.9,15.9-1.6,22c-4.7,5.6-11.6,8-18.5,5.8c-2.2-0.8-3.2-2.9-3.5-5V76
			C343.6,76.3,353.1,78.8,357.9,87.6z"/>
	</g>
	<rect x="222.5" y="289.5" fill="#990000" width="63" height="63"/>
	<rect x="222.5" y="163.6" fill="#990000" width="63" height="63"/>
	<rect x="96.5" y="163.6" fill="#990000" width="63" height="63"/>
	<rect x="96.5" y="289.5" fill="#990000" width="63" height="63"/>
	<rect x="159.5" y="226.6" fill="#990000" width="63" height="63"/>
	<path fill="#990000" d="M159.5,352.5v49.8c14.8,7.7,26,11.6,31.5,13.2c5.5-1.7,16.7-5.6,31.5-13.2v-49.8H159.5z"/>
	<path fill="#990000" d="M345.8,226.6h-60.3v63h45.2c4.5-10.7,8-21.9,10.6-33.3C343.5,246.6,344.9,236.7,345.8,226.6z"/>
	<path fill="#990000" d="M96.5,226.6H36.2c0.8,10.1,2.3,20.1,4.5,29.7c2.6,11.4,6.1,22.6,10.6,33.3h45.2V226.6z"/>
	<rect x="15.2" y="50" fill="#000066" width="351.3" height="8.9"/>
	<g>
		<path fill="#000066" d="M286,411.2c2.8,0,5,2.3,5,5.1c0,2.9-2.2,5.1-5,5.1c-2.8,0-5-2.2-5-5.1C280.9,413.5,283.2,411.2,286,411.2
			L286,411.2z M286,412c-2.2,0-4.1,1.9-4.1,4.3c0,2.4,1.8,4.3,4.1,4.3c2.3,0,4.1-1.9,4.1-4.3S288.3,412,286,412L286,412z M285,419.2
			h-0.9v-5.7c0.5-0.1,0.9-0.1,1.6-0.1c0.9,0,1.4,0.2,1.8,0.4c0.3,0.2,0.5,0.6,0.5,1.2c0,0.7-0.5,1.2-1.1,1.4v0
			c0.5,0.1,0.8,0.5,0.9,1.4c0.1,0.9,0.3,1.2,0.4,1.4h-1c-0.1-0.2-0.3-0.7-0.4-1.4c-0.1-0.7-0.5-1-1.2-1H285V419.2z M285,416.1h0.7
			c0.7,0,1.4-0.3,1.4-1c0-0.5-0.4-1-1.4-1c-0.3,0-0.5,0-0.7,0V416.1z"/>
	</g>
</g>
</svg>
